<svg width="100" height="100" viewBox="0 0 100 100" fill="none" xmlns="http://www.w3.org/2000/svg">
<g clip-path="url(#clip0_3757_110)">
<path fill-rule="evenodd" clip-rule="evenodd" d="M44.6618 6.85189V10.1852H41.1921H37.7223L37.7207 17.176L37.7193 24.1667L29.184 31.2037L20.6486 38.2408L20.6445 45.5643L20.6404 52.888L18.2828 55.1362C16.986 56.3728 15.2145 58.131 14.3458 59.0434L12.7666 60.7023L14.0881 62.8975C16.0913 66.225 17.1481 68.2178 18.6114 71.4282C19.3445 73.0362 20.005 74.4697 20.0796 74.6136C20.197 74.8408 22.4198 75.6195 22.4198 75.4334C22.4198 75.3951 21.9342 74.2193 21.3406 72.8206C19.9342 69.5069 17.926 65.4949 16.4428 63.0356L15.2577 61.071L17.2819 58.9488C24.4342 51.4497 33.3449 44.5649 41.6734 40.1028C44.7659 38.446 49.0538 36.4815 49.5778 36.4815C49.7821 36.4815 49.828 41.3408 49.8659 66.953L49.9109 97.4247L51.0972 95.6877C56.1367 88.3091 63.0451 82.0082 70.0177 78.4308C72.2942 77.2628 76.3568 75.6758 78.6337 75.0652C79.2086 74.911 79.3084 74.7532 80.4312 72.2195C81.9556 68.7795 83.9502 65.0969 86.3606 61.2725L86.6673 60.7856L85.3483 59.328C84.6228 58.5263 82.8584 56.7512 81.4273 55.3832L78.8255 52.8958L78.8203 45.5684L78.8154 38.2408L70.2807 31.2037L61.746 24.1667L61.7449 17.176L61.7437 10.1852H58.2739H54.8042V6.85189V3.51855H49.733H44.6618V6.85189ZM35.9874 28.0773L22.4198 39.2836V45.0123C22.4198 50.3447 22.4413 50.7408 22.7312 50.7406C22.9025 50.7404 23.6431 50.2286 24.3771 49.6032C28.4164 46.161 34.1164 42.0563 37.9892 39.8008C42.0899 37.4124 49.0146 34.1397 49.8171 34.2108C50.3079 34.2541 54.4846 36.1117 57.2063 37.4971C63.0574 40.475 68.5773 44.1912 74.5849 49.1963C75.7268 50.1476 76.7075 50.926 76.7647 50.926C76.8216 50.926 76.8682 50.3412 76.8682 49.6263V48.3267L74.454 46.3393C66.8867 40.11 58.6712 35.0858 51.3789 32.2278L49.8219 31.6174V24.2347C49.8219 20.1741 49.762 16.8562 49.6885 16.8613C49.615 16.8667 43.4497 21.9137 35.9874 28.0773ZM53.0248 26.9256V30.703L55.5061 32.2034C56.8709 33.0286 58.0319 33.7037 58.0862 33.7037C58.1405 33.7037 58.183 32.1413 58.1805 30.2315L58.1762 26.7593L55.7979 24.9537C54.4899 23.9606 53.3308 23.1482 53.2221 23.1482C53.084 23.1482 53.0248 24.2823 53.0248 26.9256ZM43.8166 25.3734L41.6369 27.055V30.0091C41.6369 31.6337 41.6805 32.963 41.7337 32.963C41.96 32.963 45.9517 30.4658 46.0195 30.2819C46.0604 30.1706 46.0721 28.6423 46.0453 26.8856L45.9963 23.6915L43.8166 25.3734ZM59.2771 28.0115C59.1424 28.1517 59.0746 29.2247 59.0746 31.2121C59.0746 33.8312 59.1132 34.236 59.386 34.4771C59.9175 34.9467 63.173 36.8519 63.444 36.8519C63.6574 36.8519 63.6997 36.3571 63.694 33.9352L63.6871 31.0186L62.9378 30.4491C62.5257 30.1358 61.5789 29.4119 60.834 28.8402C59.8218 28.0636 59.4284 27.8541 59.2771 28.0115ZM37.9323 29.9274L36.1209 31.3365V33.8163C36.1209 35.1804 36.1662 36.2963 36.2218 36.2963C36.2773 36.2963 37.1171 35.8171 38.088 35.2315L39.8531 34.1667L39.8552 31.3426C39.8565 29.7895 39.8319 28.5186 39.8006 28.5186C39.7693 28.5186 38.9285 29.1526 37.9323 29.9274ZM64.5906 34.8697V37.7023L66.5262 38.8512C67.5908 39.483 68.594 40 68.7556 40C69.0164 40 69.0438 39.7245 68.9997 37.5463L68.9501 35.0926L66.9928 33.5697C65.9163 32.7319 64.9355 32.0445 64.813 32.0419C64.6445 32.0382 64.5906 32.7245 64.5906 34.8697ZM32.5906 34.02L30.9607 35.2621V37.3693V39.4763L32.1467 38.7862C32.7992 38.4063 33.5593 37.9617 33.836 37.798L34.3392 37.5L34.3404 35.1389C34.341 33.8404 34.3143 32.7778 34.281 32.7778C34.2477 32.7778 33.4871 33.3367 32.5906 34.02ZM69.7899 38.4637L69.8397 40.8162L71.5901 41.8897C72.5527 42.48 73.4534 42.963 73.5919 42.963C73.794 42.963 73.8421 42.5543 73.8371 40.8797L73.8308 38.7963L72.0817 37.4537C71.1196 36.7152 70.1993 36.1112 70.0364 36.1112C69.773 36.1112 69.7456 36.3717 69.7899 38.4637ZM27.5355 37.903L25.9785 39.1137V40.7606C25.9785 41.6663 26.0203 42.4075 26.0716 42.4075C26.2958 42.4075 29.0492 40.6473 29.1182 40.4597C29.1606 40.345 29.1719 39.4506 29.1436 38.4719L29.0924 36.6923L27.5355 37.903ZM57.4767 48.9352C56.3161 49.5523 55.6518 50.5187 55.5552 51.7304C55.2367 55.7291 60.5348 57.253 62.1209 53.6187C63.4602 50.5504 60.346 47.4097 57.4767 48.9352ZM39.2351 49.1806C38.0235 49.8382 37.5444 50.651 37.5444 52.0489C37.5444 53.9289 38.7933 55.2858 40.5072 55.2682C41.284 55.26 41.5668 55.1593 42.1212 54.693C43.0652 53.8989 43.4574 53.1202 43.4574 52.0399C43.4574 49.8199 41.055 48.193 39.2351 49.1806ZM64.5042 56.3275C63.8114 56.8945 63.4937 57.7665 63.7031 58.5263C64.4081 61.0843 67.9714 60.6639 67.9714 58.0228C67.9714 57.3171 67.876 57.086 67.3664 56.5556C66.8408 56.0086 66.6454 55.926 65.878 55.926C65.2412 55.926 64.8575 56.038 64.5042 56.3275ZM32.5038 56.6747C31.1022 57.8223 32.3856 60.395 34.0709 59.8162C35.8981 59.1886 35.5355 56.2963 33.6294 56.2963C33.2308 56.2963 32.7815 56.4473 32.5038 56.6747Z" fill="black"/>
<path fill-rule="evenodd" clip-rule="evenodd" d="M44.4472 6.85207C44.4184 8.68559 44.455 10.1856 44.5283 10.1854C44.6016 10.1854 44.6618 8.68522 44.6618 6.85189C44.6618 5.01856 44.6253 3.51855 44.5807 3.51855C44.536 3.51855 44.4758 5.01874 44.4472 6.85207ZM54.8385 6.80559C54.8196 8.66448 54.8641 10.1854 54.9376 10.1856C55.0111 10.1858 55.0502 9.16485 55.0246 7.91707C54.9401 3.783 54.8732 3.38337 54.8385 6.80559ZM37.5444 17.1076V24.0302L36.8771 24.5567C34.647 26.3162 20.6897 37.8786 20.5033 38.121C20.3283 38.3482 20.2796 40.0536 20.2888 45.6182L20.3006 52.8212L17.3121 55.7271C15.6686 57.3254 13.9081 59.1184 13.4 59.7115L12.4766 60.7901L13.3273 62.108C14.9234 64.5802 16.749 67.9586 18.1675 71.0647C18.9465 72.7708 19.6815 74.3678 19.8008 74.6138C19.9611 74.9441 20.3193 75.1497 21.1742 75.4023C21.8104 75.5902 22.4257 75.7225 22.5415 75.6962C23.0066 75.5902 19.4419 67.733 17.1056 63.7143C16.3095 62.3451 15.6582 61.1284 15.6582 61.0108C15.6582 60.6032 21.5461 54.8856 24.9999 51.9391C30.5234 47.2271 35.8634 43.4789 41.3258 40.48C43.5301 39.2699 47.6399 37.3212 49.1102 36.7889C49.5506 36.6297 49.7812 36.4952 49.6228 36.4904C49.078 36.4736 44.9237 38.3615 41.6734 40.1028C33.3449 44.5649 24.4342 51.4497 17.2819 58.9488L15.2577 61.071L16.4428 63.0356C17.926 65.4949 19.9342 69.5069 21.3406 72.8206C21.9342 74.2193 22.4198 75.3951 22.4198 75.4334C22.4198 75.6195 20.197 74.8408 20.0796 74.6136C20.005 74.4697 19.3445 73.0362 18.6114 71.4282C17.1481 68.2178 16.0913 66.2251 14.0881 62.8975L12.7666 60.7023L14.3458 59.0434C15.2145 58.131 16.986 56.3728 18.2828 55.1362L20.6404 52.888L20.6445 45.5643L20.6486 38.2408L29.184 31.2037L37.7193 24.1667L37.7207 17.176C37.7216 13.331 37.6823 10.1852 37.6333 10.1852C37.5844 10.1852 37.5444 13.3004 37.5444 17.1076ZM61.786 17.1297L61.746 24.1667L70.2807 31.2037L78.8153 38.2408L78.8203 45.5684L78.8255 52.8958L81.4273 55.3832C82.8584 56.7512 84.6228 58.5263 85.3483 59.328L86.6673 60.7856L86.3605 61.2725C83.9502 65.0969 81.9556 68.7795 80.4312 72.2195C79.3084 74.7532 79.2086 74.911 78.6337 75.0652C78.2988 75.1551 76.8237 75.641 75.3557 76.1451C67.4118 78.8727 60.0774 84.3034 53.7351 92.1541C52.0307 94.2636 49.8219 97.4447 49.8219 97.7895C49.8219 97.9247 50.2582 97.3732 50.7915 96.564C55.7563 89.029 63.0509 82.2817 70.1956 78.616C72.4757 77.4462 76.528 75.8638 78.8218 75.2473C79.2004 75.1456 79.5269 74.9034 79.6623 74.6238C79.784 74.3725 80.473 72.8751 81.1935 71.2964C82.4605 68.5197 84.9209 63.9726 86.3178 61.8256L86.9977 60.7808L85.5986 59.233C84.8292 58.3817 83.0712 56.6019 81.6919 55.2778L79.184 52.8704L79.1828 45.541L79.1814 38.2115L73.0212 33.1336C69.633 30.3408 65.7696 27.1628 64.4358 26.0719L62.0105 24.088L61.9184 17.0904L61.8262 10.0926L61.786 17.1297ZM35.9874 28.0773L22.4198 39.2836V45.0123C22.4198 50.3447 22.4413 50.7408 22.7312 50.7406C22.9025 50.7404 23.6431 50.2286 24.3771 49.6032C28.4164 46.161 34.1164 42.0563 37.9892 39.8008C42.0899 37.4125 49.0146 34.1397 49.8171 34.2108C50.3079 34.2541 54.4846 36.1117 57.2063 37.4971C63.0573 40.475 68.5773 44.1912 74.5849 49.1963C75.7267 50.1476 76.7075 50.926 76.7646 50.926C76.8216 50.926 76.8682 50.3412 76.8682 49.6263V48.3267L74.454 46.3393C66.905 40.125 58.9629 35.2575 51.5312 32.2902C48.8949 31.2378 49.6456 31.6993 52.6299 32.9658C60.202 36.1793 68.1383 41.208 75.5983 47.5193L76.67 48.426L76.6801 49.5145L76.6903 50.603L76.165 50.1626C67.3477 42.7697 60.3863 38.3399 52.1401 34.8752L49.7429 33.868L47.1579 34.9382C40.2815 37.785 32.9625 42.2858 26.0714 47.9049C24.7207 49.0063 23.4253 50.0612 23.1929 50.2489L22.7705 50.5904L22.8175 44.8971L22.8646 39.2037L26.7102 36.0371C28.8251 34.2954 34.744 29.4121 39.863 25.1852C44.9821 20.9584 49.3171 17.4249 49.4961 17.3328C49.8166 17.1684 49.9495 16.8428 49.6885 16.8613C49.615 16.8667 43.4497 21.9137 35.9874 28.0773ZM53.0248 26.9256V30.703L55.5061 32.2034C56.8709 33.0286 58.0319 33.7037 58.0862 33.7037C58.1404 33.7037 58.1849 33.6204 58.1849 33.5186C58.1849 33.4167 58.1013 33.3334 57.999 33.3334C57.8967 33.3334 56.7757 32.6999 55.5079 31.9256L53.2027 30.5178V26.9191C53.2027 23.5456 53.2221 23.3317 53.5141 23.5032C53.6853 23.6037 54.7863 24.4324 55.9607 25.3449C57.1351 26.2571 58.1337 26.9649 58.1798 26.9176C58.2258 26.8704 58.1798 26.7737 58.0774 26.703C57.975 26.6321 56.8847 25.8034 55.6545 24.8612C54.4241 23.9189 53.3292 23.1482 53.2212 23.1482C53.0844 23.1482 53.0248 24.2941 53.0248 26.9256ZM43.8089 25.1065C42.457 26.1265 41.4545 27.0113 41.4484 27.1899C41.3646 29.6567 41.4024 33.3332 41.5114 33.3334C41.5892 33.3334 42.6903 32.6999 43.9581 31.9256L46.2632 30.5178V26.9256C46.2632 24.9499 46.2397 23.3334 46.2111 23.3334C46.1826 23.3334 45.1016 24.1313 43.8089 25.1065ZM43.8166 25.3734L41.6369 27.055V30.0091C41.6369 31.6337 41.6805 32.963 41.7337 32.963C41.96 32.963 45.9516 30.4658 46.0194 30.2819C46.0604 30.1706 46.0721 28.6423 46.0452 26.8856L45.9963 23.6915L43.8166 25.3734ZM59.2771 28.0115C59.1424 28.1517 59.0746 29.2247 59.0746 31.2121C59.0746 33.8312 59.1132 34.236 59.386 34.4771C59.9175 34.9467 63.173 36.8519 63.444 36.8519C63.6573 36.8519 63.6997 36.3571 63.694 33.9352L63.6871 31.0186L62.9378 30.4491C62.5257 30.1358 61.5789 29.4119 60.834 28.8402C59.8218 28.0636 59.4283 27.8541 59.2771 28.0115ZM37.8557 29.6652L35.9429 31.1515V33.9091C35.9429 35.4258 36.0031 36.66 36.0764 36.6521C36.1497 36.6439 37.0506 36.1217 38.0782 35.4913L39.9465 34.3454L39.9952 31.2469C40.0221 29.5426 39.9821 28.155 39.9063 28.1634C39.8305 28.1719 38.9077 28.8476 37.8557 29.6652ZM59.4707 31.2469L59.5194 34.3454L61.3878 35.4913C62.4153 36.1217 63.3161 36.6439 63.3895 36.6521C63.463 36.66 63.523 35.43 63.523 33.9186V31.1702L61.5613 29.6593C60.4823 28.8282 59.5595 28.1482 59.5107 28.1482C59.4618 28.1482 59.4438 29.5426 59.4707 31.2469ZM37.9323 29.9275L36.1209 31.3365V33.8163C36.1209 35.1804 36.1662 36.2963 36.2218 36.2963C36.2773 36.2963 37.1171 35.8171 38.0879 35.2315L39.8531 34.1667L39.8552 31.3426C39.8565 29.7895 39.8319 28.5186 39.8006 28.5186C39.7693 28.5186 38.9285 29.1526 37.9323 29.9275ZM64.5906 34.8697V37.7023L66.5262 38.8512C67.5908 39.483 68.594 40 68.7556 40C69.0164 40 69.0438 39.7245 68.9997 37.5463L68.95 35.0926L66.9927 33.5697C65.9162 32.7319 64.9355 32.0445 64.813 32.0419C64.6445 32.0382 64.5906 32.7245 64.5906 34.8697ZM64.9862 34.9397L65.0355 37.6682L66.8148 38.7371C67.7935 39.325 68.6541 39.8082 68.7276 39.8104C68.8011 39.8128 68.8611 38.7926 68.8611 37.5434V35.2717L66.899 33.7415L64.9369 32.2113L64.9862 34.9397ZM32.8291 33.5323C30.3883 35.4445 30.6049 35.0493 30.6049 37.5913C30.6049 38.8143 30.6621 39.8149 30.7321 39.8149C30.9148 39.8149 34.0146 37.9595 34.386 37.628C34.6536 37.3891 34.6974 37.003 34.6974 34.8787C34.6974 33.0226 34.642 32.4086 34.475 32.4123C34.3527 32.4149 33.612 32.9189 32.8291 33.5323ZM32.5906 34.02L30.9607 35.2621V37.3693V39.4763L32.1467 38.7862C32.7992 38.4063 33.5593 37.9617 33.836 37.798L34.3392 37.5L34.3404 35.1389C34.341 33.8404 34.3143 32.7778 34.281 32.7778C34.2477 32.7778 33.4871 33.3367 32.5906 34.02ZM69.7899 38.4637L69.8397 40.8162L71.5901 41.8897C72.5527 42.48 73.4534 42.963 73.5919 42.963C73.794 42.963 73.842 42.5543 73.8371 40.8797L73.8308 38.7963L72.0817 37.4537C71.1196 36.7152 70.1993 36.1112 70.0363 36.1112C69.773 36.1112 69.7456 36.3717 69.7899 38.4637ZM27.4465 37.6275L25.8006 38.9345V40.8715C25.8006 41.9371 25.8632 42.781 25.9399 42.7469C26.0164 42.713 26.8171 42.2415 27.7193 41.6991L29.3593 40.713V38.5047C29.3593 37.29 29.2992 36.3017 29.2258 36.3084C29.1525 36.315 28.3518 36.9086 27.4465 37.6275ZM70.1066 38.4937V40.713L71.7467 41.6991C72.6488 42.2415 73.4495 42.713 73.526 42.7469C73.6027 42.781 73.6653 41.935 73.6653 40.8675V38.9262L72.1084 37.7323C71.2522 37.0756 70.4515 36.4789 70.329 36.4063C70.1564 36.3039 70.1066 36.7713 70.1066 38.4937ZM27.5355 37.903L25.9785 39.1138V40.7606C25.9785 41.6663 26.0203 42.4075 26.0716 42.4075C26.2958 42.4075 29.0492 40.6473 29.1182 40.4597C29.1605 40.345 29.1719 39.4506 29.1436 38.4719L29.0924 36.6923L27.5355 37.903ZM58.5878 48.6515C58.8582 48.6939 59.2586 48.6928 59.4775 48.6489C59.6963 48.6051 59.475 48.5702 58.9856 48.5715C58.4963 48.573 58.3173 48.6089 58.5878 48.6515ZM39.0568 49.0115C37.2161 50.0215 36.6258 52.3806 37.8098 53.9962C38.331 54.7073 39.2424 55.3732 39.6796 55.3625C39.8264 55.3589 39.7063 55.2386 39.4127 55.0951C38.6646 54.7293 38.3577 54.4419 37.9234 53.7004C37.4687 52.9243 37.4127 51.3576 37.8111 50.556C38.239 49.6949 39.2214 49.0301 40.2125 48.9308C41.9123 48.7608 43.4573 50.2293 43.4573 52.0151C43.4573 53.1019 43.0947 53.8651 42.2228 54.613C41.41 55.3104 41.6266 55.3786 42.4863 54.696C44.2831 53.2697 44.0783 50.3747 42.0951 49.165C41.2049 48.6221 39.8878 48.5556 39.0568 49.0115ZM57.1824 49.0591C55.6942 50.0036 55.1251 51.8975 55.8307 53.5578C56.7344 55.6839 59.5207 56.3582 61.2271 54.8639C62.6968 53.5769 62.8312 51.1304 61.5127 49.661C61.0926 49.1925 60.1597 48.6239 60.031 48.7578C59.9879 48.8025 60.1972 48.9445 60.496 49.0732C62.2095 49.8119 62.813 52.4845 61.6178 54.0417C60.8346 55.0623 60.0842 55.4026 58.7846 55.3267C56.9577 55.2201 55.8339 54.0143 55.8091 52.1345C55.7935 50.9273 56.4086 49.76 57.3805 49.1538C57.7741 48.9082 58.0159 48.7067 57.918 48.7062C57.8202 48.7056 57.4892 48.8643 57.1824 49.0591ZM41.0698 55.3117C41.1981 55.3652 41.3516 55.3586 41.4107 55.2971C41.4698 55.2356 41.3648 55.1919 41.1773 55.1999C40.97 55.2088 40.9278 55.2526 41.0698 55.3117ZM40.2726 55.4939C40.3379 55.5617 40.4447 55.5617 40.51 55.4939C40.5751 55.426 40.5218 55.3704 40.3913 55.3704C40.2609 55.3704 40.2075 55.426 40.2726 55.4939ZM32.8073 56.1899C31.4465 56.8117 31.2559 58.6656 32.4495 59.6719C32.6582 59.8478 32.9492 59.9904 33.096 59.9886C33.2428 59.9867 33.1436 59.8615 32.8758 59.7102C31.2449 58.7893 31.7952 56.2963 33.6294 56.2963C35.4186 56.2963 35.9061 58.9932 34.2525 59.7434C33.9305 59.8895 33.8411 59.9884 34.0273 59.9928C34.197 59.9967 34.5974 59.7569 34.917 59.4597C35.4123 58.9989 35.4981 58.7947 35.4981 58.0743C35.4981 57.3793 35.4034 57.1334 34.9643 56.6878C34.3141 56.0282 33.5481 55.8513 32.8073 56.1899ZM64.5041 56.3275C63.8114 56.8945 63.4936 57.7665 63.7031 58.5263C64.4081 61.0843 67.9714 60.6639 67.9714 58.0228C67.9714 57.3171 67.876 57.086 67.3664 56.5556C67.0337 56.2093 66.6134 55.9293 66.4323 55.9332C66.2118 55.938 66.2823 56.0217 66.6454 56.1863C68.1114 56.851 68.1944 59.0415 66.7821 59.7932C66.1757 60.116 65.22 60.0389 64.7164 59.6267C64.1748 59.1832 63.8191 58.1828 63.9744 57.5389C64.1048 56.9982 64.8822 56.1856 65.3913 56.058C65.7306 55.973 65.7296 55.968 65.3709 55.9475C65.1639 55.9356 64.7739 56.1067 64.5041 56.3275Z" fill="#070707"/>
</g>
<defs>
<clipPath id="clip0_3757_110">
<rect width="100" height="100" fill="white"/>
</clipPath>
</defs>
</svg>
